<?xml version="1.0" encoding="UTF-8" standalone="no"?>
<!DOCTYPE svg PUBLIC "-//W3C//DTD SVG 1.1//EN"
 "http://www.w3.org/Graphics/SVG/1.1/DTD/svg11.dtd">
<!-- Generated by graphviz version 2.47.0 (20210316.0004)
 -->
<!-- Title: dependencies Pages: 1 -->
<svg width="540pt" height="211pt"
 viewBox="0.00 0.00 540.00 211.00" xmlns="http://www.w3.org/2000/svg" xmlns:xlink="http://www.w3.org/1999/xlink">
<g id="graph0" class="graph" transform="scale(1 1) rotate(0) translate(4 207)">
<title>dependencies</title>
<polygon fill="white" stroke="transparent" points="-4,4 -4,-207 536,-207 536,4 -4,4"/>
<text text-anchor="start" x="245.01" y="-42.4" font-family="Times-12" font-weight="bold" font-size="14.00">Legend</text>
<polygon fill="#ffffb3" stroke="transparent" points="32,-10 32,-30 52,-30 52,-10 32,-10"/>
<text text-anchor="start" x="55.63" y="-15.4" font-family="Times-12" font-size="14.00"> &#160;Declarations</text>
<polygon fill="#8dd3c7" stroke="transparent" points="145,-10 145,-30 165,-30 165,-10 145,-10"/>
<text text-anchor="start" x="168.73" y="-15.4" font-family="Times-12" font-size="14.00"> &#160;Module</text>
<polygon fill="#80b1d3" stroke="transparent" points="231,-10 231,-30 251,-30 251,-10 231,-10"/>
<text text-anchor="start" x="254.78" y="-15.4" font-family="Times-12" font-size="14.00"> &#160;Bootstrap</text>
<polygon fill="#fdb462" stroke="transparent" points="328,-10 328,-30 348,-30 348,-10 328,-10"/>
<text text-anchor="start" x="351.67" y="-15.4" font-family="Times-12" font-size="14.00"> &#160;Providers</text>
<polygon fill="#fb8072" stroke="transparent" points="424,-10 424,-30 444,-30 444,-10 424,-10"/>
<text text-anchor="start" x="447.73" y="-15.4" font-family="Times-12" font-size="14.00"> &#160;Exports</text>
<g id="clust1" class="cluster">
<title>cluster_ScopeModule</title>
<polygon fill="none" stroke="black" stroke-dasharray="1,5" points="8,-70 8,-195 524,-195 524,-70 8,-70"/>
</g>
<g id="clust6" class="cluster">
<title>cluster_ScopeModule_providers</title>
<polygon fill="none" stroke="black" points="16,-78 16,-130 516,-130 516,-78 16,-78"/>
</g>
<!-- RequestService -->
<g id="node1" class="node">
<title>RequestService</title>
<ellipse fill="#fdb462" stroke="black" cx="437" cy="-104" rx="71.2" ry="18"/>
<text text-anchor="middle" x="437" y="-99.8" font-family="Times,serif" font-size="14.00">RequestService</text>
</g>
<!-- ScopeModule -->
<g id="node4" class="node">
<title>ScopeModule</title>
<polygon fill="#8dd3c7" stroke="black" points="317.76,-187 314.76,-191 293.76,-191 290.76,-187 224.24,-187 224.24,-151 317.76,-151 317.76,-187"/>
<text text-anchor="middle" x="271" y="-164.8" font-family="Times,serif" font-size="14.00">ScopeModule</text>
</g>
<!-- RequestService&#45;&gt;ScopeModule -->
<g id="edge1" class="edge">
<title>RequestService&#45;&gt;ScopeModule</title>
<path fill="none" stroke="black" d="M437,-122.11C437,-141.34 437,-169 437,-169 437,-169 328.12,-169 328.12,-169"/>
<polygon fill="black" stroke="black" points="328.12,-165.5 318.12,-169 328.12,-172.5 328.12,-165.5"/>
</g>
<!-- SingletonService -->
<g id="node2" class="node">
<title>SingletonService</title>
<ellipse fill="#fdb462" stroke="black" cx="271" cy="-104" rx="77.02" ry="18"/>
<text text-anchor="middle" x="271" y="-99.8" font-family="Times,serif" font-size="14.00">SingletonService</text>
</g>
<!-- SingletonService&#45;&gt;ScopeModule -->
<g id="edge2" class="edge">
<title>SingletonService&#45;&gt;ScopeModule</title>
<path fill="none" stroke="black" d="M271,-122.11C271,-122.11 271,-140.99 271,-140.99"/>
<polygon fill="black" stroke="black" points="267.5,-140.99 271,-150.99 274.5,-140.99 267.5,-140.99"/>
</g>
<!-- TransientService -->
<g id="node3" class="node">
<title>TransientService</title>
<ellipse fill="#fdb462" stroke="black" cx="100" cy="-104" rx="76.42" ry="18"/>
<text text-anchor="middle" x="100" y="-99.8" font-family="Times,serif" font-size="14.00">TransientService</text>
</g>
<!-- TransientService&#45;&gt;ScopeModule -->
<g id="edge3" class="edge">
<title>TransientService&#45;&gt;ScopeModule</title>
<path fill="none" stroke="black" d="M100,-122.11C100,-141.34 100,-169 100,-169 100,-169 213.82,-169 213.82,-169"/>
<polygon fill="black" stroke="black" points="213.82,-172.5 223.82,-169 213.82,-165.5 213.82,-172.5"/>
</g>
</g>
</svg>
