<?xml version="1.0" encoding="UTF-8" standalone="no"?>
<!DOCTYPE svg PUBLIC "-//W3C//DTD SVG 1.1//EN"
 "http://www.w3.org/Graphics/SVG/1.1/DTD/svg11.dtd">
<!-- Generated by graphviz version 2.47.0 (20210316.0004)
 -->
<!-- Title: dependencies Pages: 1 -->
<svg width="2086pt" height="211pt"
 viewBox="0.00 0.00 2086.00 211.00" xmlns="http://www.w3.org/2000/svg" xmlns:xlink="http://www.w3.org/1999/xlink">
<g id="graph0" class="graph" transform="scale(1 1) rotate(0) translate(4 207)">
<title>dependencies</title>
<polygon fill="white" stroke="transparent" points="-4,4 -4,-207 2082,-207 2082,4 -4,4"/>
<text text-anchor="start" x="1018.01" y="-42.4" font-family="Times-12" font-weight="bold" font-size="14.00">Legend</text>
<polygon fill="#ffffb3" stroke="transparent" points="805,-10 805,-30 825,-30 825,-10 805,-10"/>
<text text-anchor="start" x="828.63" y="-15.4" font-family="Times-12" font-size="14.00"> &#160;Declarations</text>
<polygon fill="#8dd3c7" stroke="transparent" points="918,-10 918,-30 938,-30 938,-10 918,-10"/>
<text text-anchor="start" x="941.73" y="-15.4" font-family="Times-12" font-size="14.00"> &#160;Module</text>
<polygon fill="#80b1d3" stroke="transparent" points="1004,-10 1004,-30 1024,-30 1024,-10 1004,-10"/>
<text text-anchor="start" x="1027.78" y="-15.4" font-family="Times-12" font-size="14.00"> &#160;Bootstrap</text>
<polygon fill="#fdb462" stroke="transparent" points="1101,-10 1101,-30 1121,-30 1121,-10 1101,-10"/>
<text text-anchor="start" x="1124.67" y="-15.4" font-family="Times-12" font-size="14.00"> &#160;Providers</text>
<polygon fill="#fb8072" stroke="transparent" points="1197,-10 1197,-30 1217,-30 1217,-10 1197,-10"/>
<text text-anchor="start" x="1220.73" y="-15.4" font-family="Times-12" font-size="14.00"> &#160;Exports</text>
<g id="clust1" class="cluster">
<title>cluster_AppModule</title>
<polygon fill="none" stroke="black" stroke-dasharray="1,5" points="8,-70 8,-195 2070,-195 2070,-70 8,-70"/>
</g>
<g id="clust6" class="cluster">
<title>cluster_AppModule_providers</title>
<polygon fill="none" stroke="black" points="1128,-78 1128,-130 2062,-130 2062,-78 1128,-78"/>
</g>
<g id="clust3" class="cluster">
<title>cluster_AppModule_imports</title>
<polygon fill="none" stroke="black" points="16,-78 16,-130 1120,-130 1120,-78 16,-78"/>
</g>
<!-- AudioModule -->
<g id="node1" class="node">
<title>AudioModule</title>
<polygon fill="#8dd3c7" stroke="black" points="1112.05,-122 1109.05,-126 1088.05,-126 1085.05,-122 1017.95,-122 1017.95,-86 1112.05,-86 1112.05,-122"/>
<text text-anchor="middle" x="1065" y="-99.8" font-family="Times,serif" font-size="14.00">AudioModule</text>
</g>
<!-- AppModule -->
<g id="node11" class="node">
<title>AppModule</title>
<polygon fill="#8dd3c7" stroke="black" points="945.66,-187 942.66,-191 921.66,-191 918.66,-187 862.34,-187 862.34,-151 945.66,-151 945.66,-187"/>
<text text-anchor="middle" x="904" y="-164.8" font-family="Times,serif" font-size="14.00">AppModule</text>
</g>
<!-- AudioModule&#45;&gt;AppModule -->
<g id="edge1" class="edge">
<title>AudioModule&#45;&gt;AppModule</title>
<path fill="none" stroke="black" d="M1065,-122.19C1065,-137.18 1065,-156 1065,-156 1065,-156 955.88,-156 955.88,-156"/>
<polygon fill="black" stroke="black" points="955.88,-152.5 945.88,-156 955.88,-159.5 955.88,-152.5"/>
</g>
<!-- AuthModule -->
<g id="node2" class="node">
<title>AuthModule</title>
<polygon fill="#8dd3c7" stroke="black" points="999.55,-122 996.55,-126 975.55,-126 972.55,-122 912.45,-122 912.45,-86 999.55,-86 999.55,-122"/>
<text text-anchor="middle" x="956" y="-99.8" font-family="Times,serif" font-size="14.00">AuthModule</text>
</g>
<!-- AuthModule&#45;&gt;AppModule -->
<g id="edge2" class="edge">
<title>AuthModule&#45;&gt;AppModule</title>
<path fill="none" stroke="black" d="M929.03,-122.11C929.03,-122.11 929.03,-140.99 929.03,-140.99"/>
<polygon fill="black" stroke="black" points="925.53,-140.99 929.03,-150.99 932.53,-140.99 925.53,-140.99"/>
</g>
<!-- CatsModule -->
<g id="node3" class="node">
<title>CatsModule</title>
<polygon fill="#8dd3c7" stroke="black" points="894.44,-122 891.44,-126 870.44,-126 867.44,-122 809.56,-122 809.56,-86 894.44,-86 894.44,-122"/>
<text text-anchor="middle" x="852" y="-99.8" font-family="Times,serif" font-size="14.00">CatsModule</text>
</g>
<!-- CatsModule&#45;&gt;AppModule -->
<g id="edge3" class="edge">
<title>CatsModule&#45;&gt;AppModule</title>
<path fill="none" stroke="black" d="M878.19,-122.11C878.19,-122.11 878.19,-140.99 878.19,-140.99"/>
<polygon fill="black" stroke="black" points="874.7,-140.99 878.19,-150.99 881.7,-140.99 874.7,-140.99"/>
</g>
<!-- CircularModule -->
<g id="node4" class="node">
<title>CircularModule</title>
<polygon fill="#8dd3c7" stroke="black" points="791.92,-122 788.92,-126 767.92,-126 764.92,-122 686.08,-122 686.08,-86 791.92,-86 791.92,-122"/>
<text text-anchor="middle" x="739" y="-99.8" font-family="Times,serif" font-size="14.00">CircularModule</text>
</g>
<!-- CircularModule&#45;&gt;AppModule -->
<g id="edge4" class="edge">
<title>CircularModule&#45;&gt;AppModule</title>
<path fill="none" stroke="black" d="M739,-122.19C739,-137.18 739,-156 739,-156 739,-156 851.94,-156 851.94,-156"/>
<polygon fill="black" stroke="black" points="851.94,-159.5 861.94,-156 851.94,-152.5 851.94,-159.5"/>
</g>
<!-- ConfigModule -->
<g id="node5" class="node">
<title>ConfigModule</title>
<polygon fill="#8dd3c7" stroke="black" points="668.44,-122 665.44,-126 644.44,-126 641.44,-122 569.56,-122 569.56,-86 668.44,-86 668.44,-122"/>
<text text-anchor="middle" x="619" y="-99.8" font-family="Times,serif" font-size="14.00">ConfigModule</text>
</g>
<!-- ConfigModule&#45;&gt;AppModule -->
<g id="edge5" class="edge">
<title>ConfigModule&#45;&gt;AppModule</title>
<path fill="none" stroke="black" d="M619,-122.03C619,-138.4 619,-160 619,-160 619,-160 852.25,-160 852.25,-160"/>
<polygon fill="black" stroke="black" points="852.25,-163.5 862.25,-160 852.25,-156.5 852.25,-163.5"/>
</g>
<!-- OrdersModule -->
<g id="node6" class="node">
<title>OrdersModule</title>
<polygon fill="#8dd3c7" stroke="black" points="551.64,-122 548.64,-126 527.64,-126 524.64,-122 454.36,-122 454.36,-86 551.64,-86 551.64,-122"/>
<text text-anchor="middle" x="503" y="-99.8" font-family="Times,serif" font-size="14.00">OrdersModule</text>
</g>
<!-- OrdersModule&#45;&gt;AppModule -->
<g id="edge6" class="edge">
<title>OrdersModule&#45;&gt;AppModule</title>
<path fill="none" stroke="black" d="M503,-122.3C503,-140.27 503,-165 503,-165 503,-165 852.22,-165 852.22,-165"/>
<polygon fill="black" stroke="black" points="852.22,-168.5 862.22,-165 852.22,-161.5 852.22,-168.5"/>
</g>
<!-- ScopeModule -->
<g id="node7" class="node">
<title>ScopeModule</title>
<polygon fill="#8dd3c7" stroke="black" points="435.76,-122 432.76,-126 411.76,-126 408.76,-122 342.24,-122 342.24,-86 435.76,-86 435.76,-122"/>
<text text-anchor="middle" x="389" y="-99.8" font-family="Times,serif" font-size="14.00">ScopeModule</text>
</g>
<!-- ScopeModule&#45;&gt;AppModule -->
<g id="edge7" class="edge">
<title>ScopeModule&#45;&gt;AppModule</title>
<path fill="none" stroke="black" d="M389,-122.11C389,-141.34 389,-169 389,-169 389,-169 852.29,-169 852.29,-169"/>
<polygon fill="black" stroke="black" points="852.29,-172.5 862.29,-169 852.29,-165.5 852.29,-172.5"/>
</g>
<!-- SeeModule -->
<g id="node8" class="node">
<title>SeeModule</title>
<polygon fill="#8dd3c7" stroke="black" points="323.76,-122 320.76,-126 299.76,-126 296.76,-122 244.24,-122 244.24,-86 323.76,-86 323.76,-122"/>
<text text-anchor="middle" x="284" y="-99.8" font-family="Times,serif" font-size="14.00">SeeModule</text>
</g>
<!-- SeeModule&#45;&gt;AppModule -->
<g id="edge8" class="edge">
<title>SeeModule&#45;&gt;AppModule</title>
<path fill="none" stroke="black" d="M284,-122.03C284,-142.77 284,-174 284,-174 284,-174 851.87,-174 851.87,-174"/>
<polygon fill="black" stroke="black" points="851.87,-177.5 861.87,-174 851.87,-170.5 851.87,-177.5"/>
</g>
<!-- TasksModule -->
<g id="node9" class="node">
<title>TasksModule</title>
<polygon fill="#8dd3c7" stroke="black" points="226.21,-122 223.21,-126 202.21,-126 199.21,-122 133.79,-122 133.79,-86 226.21,-86 226.21,-122"/>
<text text-anchor="middle" x="180" y="-99.8" font-family="Times,serif" font-size="14.00">TasksModule</text>
</g>
<!-- TasksModule&#45;&gt;AppModule -->
<g id="edge9" class="edge">
<title>TasksModule&#45;&gt;AppModule</title>
<path fill="none" stroke="black" d="M180,-122.29C180,-144.21 180,-178 180,-178 180,-178 852.21,-178 852.21,-178"/>
<polygon fill="black" stroke="black" points="852.21,-181.5 862.21,-178 852.21,-174.5 852.21,-181.5"/>
</g>
<!-- UsersModule -->
<g id="node10" class="node">
<title>UsersModule</title>
<polygon fill="#8dd3c7" stroke="black" points="115.92,-122 112.92,-126 91.92,-126 88.92,-122 24.08,-122 24.08,-86 115.92,-86 115.92,-122"/>
<text text-anchor="middle" x="70" y="-99.8" font-family="Times,serif" font-size="14.00">UsersModule</text>
</g>
<!-- UsersModule&#45;&gt;AppModule -->
<g id="edge10" class="edge">
<title>UsersModule&#45;&gt;AppModule</title>
<path fill="none" stroke="black" d="M70,-122.32C70,-145.66 70,-183 70,-183 70,-183 852.07,-183 852.07,-183"/>
<polygon fill="black" stroke="black" points="852.07,-186.5 862.07,-183 852.07,-179.5 852.07,-186.5"/>
</g>
<!-- AppService -->
<g id="node12" class="node">
<title>AppService</title>
<ellipse fill="#fdb462" stroke="black" cx="1997" cy="-104" rx="56.74" ry="18"/>
<text text-anchor="middle" x="1997" y="-99.8" font-family="Times,serif" font-size="14.00">AppService</text>
</g>
<!-- AppService&#45;&gt;AppModule -->
<g id="edge11" class="edge">
<title>AppService&#45;&gt;AppModule</title>
<path fill="none" stroke="black" d="M1997,-122.32C1997,-145.66 1997,-183 1997,-183 1997,-183 955.84,-183 955.84,-183"/>
<polygon fill="black" stroke="black" points="955.84,-179.5 945.84,-183 955.84,-186.5 955.84,-179.5"/>
</g>
<!-- CommonService -->
<g id="node13" class="node">
<title>CommonService</title>
<ellipse fill="#fdb462" stroke="black" cx="1846" cy="-104" rx="75.88" ry="18"/>
<text text-anchor="middle" x="1846" y="-99.8" font-family="Times,serif" font-size="14.00">CommonService</text>
</g>
<!-- CommonService&#45;&gt;AppModule -->
<g id="edge12" class="edge">
<title>CommonService&#45;&gt;AppModule</title>
<path fill="none" stroke="black" d="M1846,-122.29C1846,-144.21 1846,-178 1846,-178 1846,-178 955.69,-178 955.69,-178"/>
<polygon fill="black" stroke="black" points="955.69,-174.5 945.69,-178 955.69,-181.5 955.69,-174.5"/>
</g>
<!-- PostService -->
<g id="node14" class="node">
<title>PostService</title>
<ellipse fill="#fdb462" stroke="black" cx="1695" cy="-104" rx="56.76" ry="18"/>
<text text-anchor="middle" x="1695" y="-99.8" font-family="Times,serif" font-size="14.00">PostService</text>
</g>
<!-- PostService&#45;&gt;AppModule -->
<g id="edge13" class="edge">
<title>PostService&#45;&gt;AppModule</title>
<path fill="none" stroke="black" d="M1695,-122.03C1695,-142.77 1695,-174 1695,-174 1695,-174 955.69,-174 955.69,-174"/>
<polygon fill="black" stroke="black" points="955.69,-170.5 945.69,-174 955.69,-177.5 955.69,-170.5"/>
</g>
<!-- RequestService -->
<g id="node15" class="node">
<title>RequestService</title>
<ellipse fill="#fdb462" stroke="black" cx="1549" cy="-104" rx="71.2" ry="18"/>
<text text-anchor="middle" x="1549" y="-99.8" font-family="Times,serif" font-size="14.00">RequestService</text>
</g>
<!-- RequestService&#45;&gt;AppModule -->
<g id="edge14" class="edge">
<title>RequestService&#45;&gt;AppModule</title>
<path fill="none" stroke="black" d="M1549,-122.11C1549,-141.34 1549,-169 1549,-169 1549,-169 955.82,-169 955.82,-169"/>
<polygon fill="black" stroke="black" points="955.82,-165.5 945.82,-169 955.82,-172.5 955.82,-165.5"/>
</g>
<!-- SingletonService -->
<g id="node16" class="node">
<title>SingletonService</title>
<ellipse fill="#fdb462" stroke="black" cx="1383" cy="-104" rx="77.02" ry="18"/>
<text text-anchor="middle" x="1383" y="-99.8" font-family="Times,serif" font-size="14.00">SingletonService</text>
</g>
<!-- SingletonService&#45;&gt;AppModule -->
<g id="edge15" class="edge">
<title>SingletonService&#45;&gt;AppModule</title>
<path fill="none" stroke="black" d="M1383,-122.3C1383,-140.27 1383,-165 1383,-165 1383,-165 955.67,-165 955.67,-165"/>
<polygon fill="black" stroke="black" points="955.67,-161.5 945.67,-165 955.67,-168.5 955.67,-161.5"/>
</g>
<!-- TransientService -->
<g id="node17" class="node">
<title>TransientService</title>
<ellipse fill="#fdb462" stroke="black" cx="1212" cy="-104" rx="76.42" ry="18"/>
<text text-anchor="middle" x="1212" y="-99.8" font-family="Times,serif" font-size="14.00">TransientService</text>
</g>
<!-- TransientService&#45;&gt;AppModule -->
<g id="edge16" class="edge">
<title>TransientService&#45;&gt;AppModule</title>
<path fill="none" stroke="black" d="M1212,-122.03C1212,-138.4 1212,-160 1212,-160 1212,-160 955.86,-160 955.86,-160"/>
<polygon fill="black" stroke="black" points="955.86,-156.5 945.86,-160 955.86,-163.5 955.86,-156.5"/>
</g>
</g>
</svg>
