<?xml version="1.0" encoding="UTF-8" standalone="no"?>
<!DOCTYPE svg PUBLIC "-//W3C//DTD SVG 1.1//EN"
 "http://www.w3.org/Graphics/SVG/1.1/DTD/svg11.dtd">
<!-- Generated by graphviz version 2.47.0 (20210316.0004)
 -->
<!-- Title: dependencies Pages: 1 -->
<svg width="1444pt" height="211pt"
 viewBox="0.00 0.00 1444.00 211.00" xmlns="http://www.w3.org/2000/svg" xmlns:xlink="http://www.w3.org/1999/xlink">
<g id="graph0" class="graph" transform="scale(1 1) rotate(0) translate(4 207)">
<title>dependencies</title>
<polygon fill="white" stroke="transparent" points="-4,4 -4,-207 1440,-207 1440,4 -4,4"/>
<text text-anchor="start" x="697.01" y="-42.4" font-family="Times-12" font-weight="bold" font-size="14.00">Legend</text>
<polygon fill="#ffffb3" stroke="transparent" points="484,-10 484,-30 504,-30 504,-10 484,-10"/>
<text text-anchor="start" x="507.63" y="-15.4" font-family="Times-12" font-size="14.00"> &#160;Declarations</text>
<polygon fill="#8dd3c7" stroke="transparent" points="597,-10 597,-30 617,-30 617,-10 597,-10"/>
<text text-anchor="start" x="620.73" y="-15.4" font-family="Times-12" font-size="14.00"> &#160;Module</text>
<polygon fill="#80b1d3" stroke="transparent" points="683,-10 683,-30 703,-30 703,-10 683,-10"/>
<text text-anchor="start" x="706.78" y="-15.4" font-family="Times-12" font-size="14.00"> &#160;Bootstrap</text>
<polygon fill="#fdb462" stroke="transparent" points="780,-10 780,-30 800,-30 800,-10 780,-10"/>
<text text-anchor="start" x="803.67" y="-15.4" font-family="Times-12" font-size="14.00"> &#160;Providers</text>
<polygon fill="#fb8072" stroke="transparent" points="876,-10 876,-30 896,-30 896,-10 876,-10"/>
<text text-anchor="start" x="899.73" y="-15.4" font-family="Times-12" font-size="14.00"> &#160;Exports</text>
<g id="clust1" class="cluster">
<title>cluster_CircularModule</title>
<polygon fill="none" stroke="black" stroke-dasharray="1,5" points="8,-70 8,-195 1428,-195 1428,-70 8,-70"/>
</g>
<g id="clust6" class="cluster">
<title>cluster_CircularModule_providers</title>
<polygon fill="none" stroke="black" points="16,-78 16,-130 1420,-130 1420,-78 16,-78"/>
</g>
<!-- AuthService -->
<g id="node1" class="node">
<title>AuthService</title>
<ellipse fill="#fdb462" stroke="black" cx="1353" cy="-104" rx="59.11" ry="18"/>
<text text-anchor="middle" x="1353" y="-99.8" font-family="Times,serif" font-size="14.00">AuthService</text>
</g>
<!-- CircularModule -->
<g id="node9" class="node">
<title>CircularModule</title>
<polygon fill="#8dd3c7" stroke="black" points="746.92,-187 743.92,-191 722.92,-191 719.92,-187 641.08,-187 641.08,-151 746.92,-151 746.92,-187"/>
<text text-anchor="middle" x="694" y="-164.8" font-family="Times,serif" font-size="14.00">CircularModule</text>
</g>
<!-- AuthService&#45;&gt;CircularModule -->
<g id="edge1" class="edge">
<title>AuthService&#45;&gt;CircularModule</title>
<path fill="none" stroke="black" d="M1353,-122.29C1353,-144.21 1353,-178 1353,-178 1353,-178 756.81,-178 756.81,-178"/>
<polygon fill="black" stroke="black" points="756.81,-174.5 746.81,-178 756.81,-181.5 756.81,-174.5"/>
</g>
<!-- AuthServiceForWardRef -->
<g id="node2" class="node">
<title>AuthServiceForWardRef</title>
<ellipse fill="#fdb462" stroke="black" cx="1168" cy="-104" rx="108.2" ry="18"/>
<text text-anchor="middle" x="1168" y="-99.8" font-family="Times,serif" font-size="14.00">AuthServiceForWardRef</text>
</g>
<!-- AuthServiceForWardRef&#45;&gt;CircularModule -->
<g id="edge2" class="edge">
<title>AuthServiceForWardRef&#45;&gt;CircularModule</title>
<path fill="none" stroke="black" d="M1168,-122.11C1168,-141.34 1168,-169 1168,-169 1168,-169 756.99,-169 756.99,-169"/>
<polygon fill="black" stroke="black" points="756.99,-165.5 746.99,-169 756.99,-172.5 756.99,-165.5"/>
</g>
<!-- LazyLoaderService -->
<g id="node3" class="node">
<title>LazyLoaderService</title>
<ellipse fill="#fdb462" stroke="black" cx="955" cy="-104" rx="86.78" ry="18"/>
<text text-anchor="middle" x="955" y="-99.8" font-family="Times,serif" font-size="14.00">LazyLoaderService</text>
</g>
<!-- LazyLoaderService&#45;&gt;CircularModule -->
<g id="edge3" class="edge">
<title>LazyLoaderService&#45;&gt;CircularModule</title>
<path fill="none" stroke="black" d="M955,-122.03C955,-138.4 955,-160 955,-160 955,-160 756.82,-160 756.82,-160"/>
<polygon fill="black" stroke="black" points="756.82,-156.5 746.82,-160 756.82,-163.5 756.82,-156.5"/>
</g>
<!-- ResolveService -->
<g id="node4" class="node">
<title>ResolveService</title>
<ellipse fill="#fdb462" stroke="black" cx="779" cy="-104" rx="71.2" ry="18"/>
<text text-anchor="middle" x="779" y="-99.8" font-family="Times,serif" font-size="14.00">ResolveService</text>
</g>
<!-- ResolveService&#45;&gt;CircularModule -->
<g id="edge4" class="edge">
<title>ResolveService&#45;&gt;CircularModule</title>
<path fill="none" stroke="black" d="M727.3,-116.53C727.3,-116.53 727.3,-140.85 727.3,-140.85"/>
<polygon fill="black" stroke="black" points="723.8,-140.85 727.3,-150.85 730.8,-140.85 723.8,-140.85"/>
</g>
<!-- RetrievingService -->
<g id="node5" class="node">
<title>RetrievingService</title>
<ellipse fill="#fdb462" stroke="black" cx="609" cy="-104" rx="80.51" ry="18"/>
<text text-anchor="middle" x="609" y="-99.8" font-family="Times,serif" font-size="14.00">RetrievingService</text>
</g>
<!-- RetrievingService&#45;&gt;CircularModule -->
<g id="edge5" class="edge">
<title>RetrievingService&#45;&gt;CircularModule</title>
<path fill="none" stroke="black" d="M665.52,-117.15C665.52,-117.15 665.52,-140.69 665.52,-140.69"/>
<polygon fill="black" stroke="black" points="662.02,-140.69 665.52,-150.69 669.02,-140.69 662.02,-140.69"/>
</g>
<!-- ShareService -->
<g id="node6" class="node">
<title>ShareService</title>
<ellipse fill="#fdb462" stroke="black" cx="448" cy="-104" rx="61.95" ry="18"/>
<text text-anchor="middle" x="448" y="-99.8" font-family="Times,serif" font-size="14.00">ShareService</text>
</g>
<!-- ShareService&#45;&gt;CircularModule -->
<g id="edge6" class="edge">
<title>ShareService&#45;&gt;CircularModule</title>
<path fill="none" stroke="black" d="M448,-122.03C448,-138.4 448,-160 448,-160 448,-160 631.23,-160 631.23,-160"/>
<polygon fill="black" stroke="black" points="631.23,-163.5 641.23,-160 631.23,-156.5 631.23,-163.5"/>
</g>
<!-- UserService -->
<g id="node7" class="node">
<title>UserService</title>
<ellipse fill="#fdb462" stroke="black" cx="310" cy="-104" rx="58.44" ry="18"/>
<text text-anchor="middle" x="310" y="-99.8" font-family="Times,serif" font-size="14.00">UserService</text>
</g>
<!-- UserService&#45;&gt;CircularModule -->
<g id="edge7" class="edge">
<title>UserService&#45;&gt;CircularModule</title>
<path fill="none" stroke="black" d="M310,-122.11C310,-141.34 310,-169 310,-169 310,-169 631.01,-169 631.01,-169"/>
<polygon fill="black" stroke="black" points="631.01,-172.5 641.01,-169 631.01,-165.5 631.01,-172.5"/>
</g>
<!-- UserServiceForwardRef -->
<g id="node8" class="node">
<title>UserServiceForwardRef</title>
<ellipse fill="#fdb462" stroke="black" cx="129" cy="-104" rx="104.75" ry="18"/>
<text text-anchor="middle" x="129" y="-99.8" font-family="Times,serif" font-size="14.00">UserServiceForwardRef</text>
</g>
<!-- UserServiceForwardRef&#45;&gt;CircularModule -->
<g id="edge8" class="edge">
<title>UserServiceForwardRef&#45;&gt;CircularModule</title>
<path fill="none" stroke="black" d="M129,-122.29C129,-144.21 129,-178 129,-178 129,-178 631.1,-178 631.1,-178"/>
<polygon fill="black" stroke="black" points="631.1,-181.5 641.1,-178 631.1,-174.5 631.1,-181.5"/>
</g>
</g>
</svg>
