<?xml version="1.0" encoding="UTF-8" standalone="no"?>
<!DOCTYPE svg PUBLIC "-//W3C//DTD SVG 1.1//EN"
 "http://www.w3.org/Graphics/SVG/1.1/DTD/svg11.dtd">
<!-- Generated by graphviz version 2.47.0 (20210316.0004)
 -->
<!-- Title: dependencies Pages: 1 -->
<svg width="504pt" height="211pt"
 viewBox="0.00 0.00 504.00 211.00" xmlns="http://www.w3.org/2000/svg" xmlns:xlink="http://www.w3.org/1999/xlink">
<g id="graph0" class="graph" transform="scale(1 1) rotate(0) translate(4 207)">
<title>dependencies</title>
<polygon fill="white" stroke="transparent" points="-4,4 -4,-207 500,-207 500,4 -4,4"/>
<text text-anchor="start" x="227.01" y="-42.4" font-family="Times-12" font-weight="bold" font-size="14.00">Legend</text>
<polygon fill="#ffffb3" stroke="transparent" points="14,-10 14,-30 34,-30 34,-10 14,-10"/>
<text text-anchor="start" x="37.63" y="-15.4" font-family="Times-12" font-size="14.00"> &#160;Declarations</text>
<polygon fill="#8dd3c7" stroke="transparent" points="127,-10 127,-30 147,-30 147,-10 127,-10"/>
<text text-anchor="start" x="150.73" y="-15.4" font-family="Times-12" font-size="14.00"> &#160;Module</text>
<polygon fill="#80b1d3" stroke="transparent" points="213,-10 213,-30 233,-30 233,-10 213,-10"/>
<text text-anchor="start" x="236.78" y="-15.4" font-family="Times-12" font-size="14.00"> &#160;Bootstrap</text>
<polygon fill="#fdb462" stroke="transparent" points="310,-10 310,-30 330,-30 330,-10 310,-10"/>
<text text-anchor="start" x="333.67" y="-15.4" font-family="Times-12" font-size="14.00"> &#160;Providers</text>
<polygon fill="#fb8072" stroke="transparent" points="406,-10 406,-30 426,-30 426,-10 406,-10"/>
<text text-anchor="start" x="429.73" y="-15.4" font-family="Times-12" font-size="14.00"> &#160;Exports</text>
<g id="clust1" class="cluster">
<title>cluster_PhotoModule</title>
<polygon fill="none" stroke="black" stroke-dasharray="1,5" points="102,-70 102,-195 394,-195 394,-70 102,-70"/>
</g>
<g id="clust6" class="cluster">
<title>cluster_PhotoModule_providers</title>
<polygon fill="none" stroke="black" points="244,-78 244,-130 386,-130 386,-78 244,-78"/>
</g>
<g id="clust3" class="cluster">
<title>cluster_PhotoModule_imports</title>
<polygon fill="none" stroke="black" points="110,-78 110,-130 236,-130 236,-78 110,-78"/>
</g>
<!-- DatabaseModule -->
<g id="node1" class="node">
<title>DatabaseModule</title>
<polygon fill="#8dd3c7" stroke="black" points="228.35,-122 225.35,-126 204.35,-126 201.35,-122 117.65,-122 117.65,-86 228.35,-86 228.35,-122"/>
<text text-anchor="middle" x="173" y="-99.8" font-family="Times,serif" font-size="14.00">DatabaseModule</text>
</g>
<!-- PhotoModule -->
<g id="node2" class="node">
<title>PhotoModule</title>
<polygon fill="#8dd3c7" stroke="black" points="290.22,-187 287.22,-191 266.22,-191 263.22,-187 197.78,-187 197.78,-151 290.22,-151 290.22,-187"/>
<text text-anchor="middle" x="244" y="-164.8" font-family="Times,serif" font-size="14.00">PhotoModule</text>
</g>
<!-- DatabaseModule&#45;&gt;PhotoModule -->
<g id="edge1" class="edge">
<title>DatabaseModule&#45;&gt;PhotoModule</title>
<path fill="none" stroke="black" d="M213.16,-122.11C213.16,-122.11 213.16,-140.99 213.16,-140.99"/>
<polygon fill="black" stroke="black" points="209.66,-140.99 213.16,-150.99 216.66,-140.99 209.66,-140.99"/>
</g>
<!-- PhotoService -->
<g id="node3" class="node">
<title>PhotoService</title>
<ellipse fill="#fdb462" stroke="black" cx="315" cy="-104" rx="62.56" ry="18"/>
<text text-anchor="middle" x="315" y="-99.8" font-family="Times,serif" font-size="14.00">PhotoService</text>
</g>
<!-- PhotoService&#45;&gt;PhotoModule -->
<g id="edge2" class="edge">
<title>PhotoService&#45;&gt;PhotoModule</title>
<path fill="none" stroke="black" d="M271.29,-117.15C271.29,-117.15 271.29,-140.69 271.29,-140.69"/>
<polygon fill="black" stroke="black" points="267.79,-140.69 271.29,-150.69 274.79,-140.69 267.79,-140.69"/>
</g>
</g>
</svg>
