<?xml version="1.0" encoding="UTF-8" standalone="no"?>
<!DOCTYPE svg PUBLIC "-//W3C//DTD SVG 1.1//EN"
 "http://www.w3.org/Graphics/SVG/1.1/DTD/svg11.dtd">
<!-- Generated by graphviz version 2.47.0 (20210316.0004)
 -->
<!-- Title: dependencies Pages: 1 -->
<svg width="4008pt" height="306pt"
 viewBox="0.00 0.00 4008.00 306.00" xmlns="http://www.w3.org/2000/svg" xmlns:xlink="http://www.w3.org/1999/xlink">
<g id="graph0" class="graph" transform="scale(1 1) rotate(0) translate(4 302)">
<title>dependencies</title>
<polygon fill="white" stroke="transparent" points="-4,4 -4,-302 4004,-302 4004,4 -4,4"/>
<text text-anchor="start" x="1979.01" y="-42.4" font-family="Times-12" font-weight="bold" font-size="14.00">Legend</text>
<polygon fill="#ffffb3" stroke="transparent" points="1766,-10 1766,-30 1786,-30 1786,-10 1766,-10"/>
<text text-anchor="start" x="1789.63" y="-15.4" font-family="Times-12" font-size="14.00"> &#160;Declarations</text>
<polygon fill="#8dd3c7" stroke="transparent" points="1879,-10 1879,-30 1899,-30 1899,-10 1879,-10"/>
<text text-anchor="start" x="1902.73" y="-15.4" font-family="Times-12" font-size="14.00"> &#160;Module</text>
<polygon fill="#80b1d3" stroke="transparent" points="1965,-10 1965,-30 1985,-30 1985,-10 1965,-10"/>
<text text-anchor="start" x="1988.78" y="-15.4" font-family="Times-12" font-size="14.00"> &#160;Bootstrap</text>
<polygon fill="#fdb462" stroke="transparent" points="2062,-10 2062,-30 2082,-30 2082,-10 2062,-10"/>
<text text-anchor="start" x="2085.67" y="-15.4" font-family="Times-12" font-size="14.00"> &#160;Providers</text>
<polygon fill="#fb8072" stroke="transparent" points="2158,-10 2158,-30 2178,-30 2178,-10 2158,-10"/>
<text text-anchor="start" x="2181.73" y="-15.4" font-family="Times-12" font-size="14.00"> &#160;Exports</text>
<g id="clust1" class="cluster">
<title>cluster_AppModule</title>
<polygon fill="none" stroke="black" stroke-dasharray="1,5" points="560,-70 560,-290 1686,-290 1686,-70 560,-70"/>
</g>
<g id="clust3" class="cluster">
<title>cluster_AppModule_imports</title>
<polygon fill="none" stroke="black" points="680,-154 680,-282 1678,-282 1678,-154 680,-154"/>
</g>
<g id="clust6" class="cluster">
<title>cluster_AppModule_providers</title>
<polygon fill="none" stroke="black" points="568,-78 568,-130 1503,-130 1503,-78 568,-78"/>
</g>
<g id="clust7" class="cluster">
<title>cluster_AudioModule</title>
<polygon fill="none" stroke="black" stroke-dasharray="1,5" points="1694,-70 1694,-138 1854,-138 1854,-70 1694,-70"/>
</g>
<g id="clust12" class="cluster">
<title>cluster_AudioModule_providers</title>
<polygon fill="none" stroke="black" points="1702,-78 1702,-130 1846,-130 1846,-78 1702,-78"/>
</g>
<g id="clust13" class="cluster">
<title>cluster_AuthModule</title>
<polygon fill="none" stroke="black" stroke-dasharray="1,5" points="8,-146 8,-214 552,-214 552,-146 8,-146"/>
</g>
<g id="clust16" class="cluster">
<title>cluster_AuthModule_exports</title>
<polygon fill="none" stroke="black" points="438,-154 438,-206 544,-206 544,-154 438,-154"/>
</g>
<g id="clust18" class="cluster">
<title>cluster_AuthModule_providers</title>
<polygon fill="none" stroke="black" points="16,-154 16,-206 430,-206 430,-154 16,-154"/>
</g>
<g id="clust19" class="cluster">
<title>cluster_CatsModule</title>
<polygon fill="none" stroke="black" stroke-dasharray="1,5" points="1694,-222 1694,-290 1812,-290 1812,-222 1694,-222"/>
</g>
<g id="clust22" class="cluster">
<title>cluster_CatsModule_exports</title>
<polygon fill="none" stroke="black" points="1702,-230 1702,-282 1804,-282 1804,-230 1702,-230"/>
</g>
<g id="clust25" class="cluster">
<title>cluster_CircularModule</title>
<polygon fill="none" stroke="black" stroke-dasharray="1,5" points="1862,-70 1862,-138 3146,-138 3146,-70 1862,-70"/>
</g>
<g id="clust30" class="cluster">
<title>cluster_CircularModule_providers</title>
<polygon fill="none" stroke="black" points="1870,-78 1870,-130 3138,-130 3138,-78 1870,-78"/>
</g>
<g id="clust43" class="cluster">
<title>cluster_OrdersModule</title>
<polygon fill="none" stroke="black" stroke-dasharray="1,5" points="3154,-70 3154,-138 3526,-138 3526,-70 3154,-70"/>
</g>
<g id="clust48" class="cluster">
<title>cluster_OrdersModule_providers</title>
<polygon fill="none" stroke="black" points="3162,-78 3162,-130 3518,-130 3518,-78 3162,-78"/>
</g>
<g id="clust49" class="cluster">
<title>cluster_PhotoModule</title>
<polygon fill="none" stroke="black" stroke-dasharray="1,5" points="3700,-70 3700,-206 3992,-206 3992,-70 3700,-70"/>
</g>
<g id="clust51" class="cluster">
<title>cluster_PhotoModule_imports</title>
<polygon fill="none" stroke="black" points="3858,-78 3858,-130 3984,-130 3984,-78 3858,-78"/>
</g>
<g id="clust54" class="cluster">
<title>cluster_PhotoModule_providers</title>
<polygon fill="none" stroke="black" points="3708,-78 3708,-130 3850,-130 3850,-78 3708,-78"/>
</g>
<g id="clust67" class="cluster">
<title>cluster_TasksModule</title>
<polygon fill="none" stroke="black" stroke-dasharray="1,5" points="3534,-70 3534,-138 3692,-138 3692,-70 3534,-70"/>
</g>
<g id="clust72" class="cluster">
<title>cluster_TasksModule_providers</title>
<polygon fill="none" stroke="black" points="3542,-78 3542,-130 3684,-130 3684,-78 3542,-78"/>
</g>
<g id="clust73" class="cluster">
<title>cluster_UsersModule</title>
<polygon fill="none" stroke="black" stroke-dasharray="1,5" points="1820,-222 1820,-290 2094,-290 2094,-222 1820,-222"/>
</g>
<g id="clust76" class="cluster">
<title>cluster_UsersModule_exports</title>
<polygon fill="none" stroke="black" points="1976,-230 1976,-282 2086,-282 2086,-230 1976,-230"/>
</g>
<g id="clust78" class="cluster">
<title>cluster_UsersModule_providers</title>
<polygon fill="none" stroke="black" points="1828,-230 1828,-282 1968,-282 1968,-230 1828,-230"/>
</g>
<!-- AudioModule -->
<g id="node1" class="node">
<title>AudioModule</title>
<polygon fill="#8dd3c7" stroke="black" points="1010.05,-198 1007.05,-202 986.05,-202 983.05,-198 915.95,-198 915.95,-162 1010.05,-162 1010.05,-198"/>
<text text-anchor="middle" x="963" y="-175.8" font-family="Times,serif" font-size="14.00">AudioModule</text>
</g>
<!-- AppModule -->
<g id="node11" class="node">
<title>AppModule</title>
<polygon fill="#8dd3c7" stroke="black" points="671.66,-274 668.66,-278 647.66,-278 644.66,-274 588.34,-274 588.34,-238 671.66,-238 671.66,-274"/>
<text text-anchor="middle" x="630" y="-251.8" font-family="Times,serif" font-size="14.00">AppModule</text>
</g>
<!-- AudioModule&#45;&gt;AppModule -->
<g id="edge1" class="edge">
<title>AudioModule&#45;&gt;AppModule</title>
<path fill="none" stroke="black" d="M963,-198.32C963,-206.79 963,-215 963,-215 963,-215 635.23,-215 635.23,-215 635.23,-215 635.23,-227.9 635.23,-227.9"/>
<polygon fill="black" stroke="black" points="631.73,-227.9 635.23,-237.9 638.73,-227.9 631.73,-227.9"/>
</g>
<!-- AuthModule -->
<g id="node2" class="node">
<title>AuthModule</title>
<polygon fill="#8dd3c7" stroke="black" points="777.55,-274 774.55,-278 753.55,-278 750.55,-274 690.45,-274 690.45,-238 777.55,-238 777.55,-274"/>
<text text-anchor="middle" x="734" y="-251.8" font-family="Times,serif" font-size="14.00">AuthModule</text>
</g>
<!-- AuthModule&#45;&gt;AppModule -->
<g id="edge2" class="edge">
<title>AuthModule&#45;&gt;AppModule</title>
<path fill="none" stroke="black" d="M690.2,-262C690.2,-262 681.76,-262 681.76,-262"/>
<polygon fill="black" stroke="black" points="681.76,-258.5 671.76,-262 681.76,-265.5 681.76,-258.5"/>
</g>
<!-- AuthService  -->
<g id="node19" class="node">
<title>AuthService </title>
<polygon fill="#fb8072" stroke="black" points="535.98,-198 446.02,-198 446.02,-162 535.98,-162 535.98,-198"/>
<text text-anchor="middle" x="491" y="-175.8" font-family="Times,serif" font-size="14.00">AuthService </text>
</g>
<!-- AuthModule&#45;&gt;AuthService  -->
<g id="edge19" class="edge">
<title>AuthModule&#45;&gt;AuthService </title>
<path fill="none" stroke="black" stroke-dasharray="5,2" d="M690.25,-250C684.09,-250 679.8,-250 679.8,-250 679.8,-250 679.8,-174 679.8,-174 679.8,-174 545.74,-174 545.74,-174"/>
<polygon fill="black" stroke="black" points="545.74,-170.5 535.74,-174 545.74,-177.5 545.74,-170.5"/>
</g>
<!-- CatsModule -->
<g id="node3" class="node">
<title>CatsModule</title>
<polygon fill="#8dd3c7" stroke="black" points="1560.44,-198 1557.44,-202 1536.44,-202 1533.44,-198 1475.56,-198 1475.56,-162 1560.44,-162 1560.44,-198"/>
<text text-anchor="middle" x="1518" y="-175.8" font-family="Times,serif" font-size="14.00">CatsModule</text>
</g>
<!-- CatsModule&#45;&gt;AppModule -->
<g id="edge3" class="edge">
<title>CatsModule&#45;&gt;AppModule</title>
<path fill="none" stroke="black" d="M1503.93,-198.19C1503.93,-213.18 1503.93,-232 1503.93,-232 1503.93,-232 661.37,-232 661.37,-232 661.37,-232 661.37,-232.58 661.37,-232.58"/>
<polygon fill="black" stroke="black" points="657.87,-227.81 661.37,-237.81 664.87,-227.81 657.87,-227.81"/>
</g>
<!-- CatsService  -->
<g id="node23" class="node">
<title>CatsService </title>
<polygon fill="#fb8072" stroke="black" points="1796.36,-274 1709.64,-274 1709.64,-238 1796.36,-238 1796.36,-274"/>
<text text-anchor="middle" x="1753" y="-251.8" font-family="Times,serif" font-size="14.00">CatsService </text>
</g>
<!-- CatsModule&#45;&gt;CatsService  -->
<g id="edge23" class="edge">
<title>CatsModule&#45;&gt;CatsService </title>
<path fill="none" stroke="black" stroke-dasharray="5,2" d="M1532.07,-198.2C1532.07,-222.36 1532.07,-262 1532.07,-262 1532.07,-262 1699.62,-262 1699.62,-262"/>
<polygon fill="black" stroke="black" points="1699.62,-265.5 1709.62,-262 1699.62,-258.5 1699.62,-265.5"/>
</g>
<!-- CircularModule -->
<g id="node4" class="node">
<title>CircularModule</title>
<polygon fill="#8dd3c7" stroke="black" points="1133.92,-198 1130.92,-202 1109.92,-202 1106.92,-198 1028.08,-198 1028.08,-162 1133.92,-162 1133.92,-198"/>
<text text-anchor="middle" x="1081" y="-175.8" font-family="Times,serif" font-size="14.00">CircularModule</text>
</g>
<!-- CircularModule&#45;&gt;AppModule -->
<g id="edge4" class="edge">
<title>CircularModule&#45;&gt;AppModule</title>
<path fill="none" stroke="black" d="M1081,-198.11C1081,-207.9 1081,-218 1081,-218 1081,-218 640.46,-218 640.46,-218 640.46,-218 640.46,-227.89 640.46,-227.89"/>
<polygon fill="black" stroke="black" points="636.96,-227.89 640.46,-237.89 643.96,-227.89 636.96,-227.89"/>
</g>
<!-- ConfigModule -->
<g id="node5" class="node">
<title>ConfigModule</title>
<polygon fill="#8dd3c7" stroke="black" points="786.44,-198 783.44,-202 762.44,-202 759.44,-198 687.56,-198 687.56,-162 786.44,-162 786.44,-198"/>
<text text-anchor="middle" x="737" y="-175.8" font-family="Times,serif" font-size="14.00">ConfigModule</text>
</g>
<!-- ConfigModule&#45;&gt;AppModule -->
<g id="edge5" class="edge">
<title>ConfigModule&#45;&gt;AppModule</title>
<path fill="none" stroke="black" d="M687.77,-186C657.62,-186 624.77,-186 624.77,-186 624.77,-186 624.77,-227.97 624.77,-227.97"/>
<polygon fill="black" stroke="black" points="621.27,-227.97 624.77,-237.97 628.27,-227.97 621.27,-227.97"/>
</g>
<!-- OrdersModule -->
<g id="node6" class="node">
<title>OrdersModule</title>
<polygon fill="#8dd3c7" stroke="black" points="1347.64,-198 1344.64,-202 1323.64,-202 1320.64,-198 1250.36,-198 1250.36,-162 1347.64,-162 1347.64,-198"/>
<text text-anchor="middle" x="1299" y="-175.8" font-family="Times,serif" font-size="14.00">OrdersModule</text>
</g>
<!-- OrdersModule&#45;&gt;AppModule -->
<g id="edge6" class="edge">
<title>OrdersModule&#45;&gt;AppModule</title>
<path fill="none" stroke="black" d="M1299,-198.04C1299,-210.56 1299,-225 1299,-225 1299,-225 650.91,-225 650.91,-225 650.91,-225 650.91,-227.97 650.91,-227.97"/>
<polygon fill="black" stroke="black" points="647.41,-227.97 650.91,-237.97 654.41,-227.97 647.41,-227.97"/>
</g>
<!-- ScopeModule -->
<g id="node7" class="node">
<title>ScopeModule</title>
<polygon fill="#8dd3c7" stroke="black" points="897.76,-198 894.76,-202 873.76,-202 870.76,-198 804.24,-198 804.24,-162 897.76,-162 897.76,-198"/>
<text text-anchor="middle" x="851" y="-175.8" font-family="Times,serif" font-size="14.00">ScopeModule</text>
</g>
<!-- ScopeModule&#45;&gt;AppModule -->
<g id="edge7" class="edge">
<title>ScopeModule&#45;&gt;AppModule</title>
<path fill="none" stroke="black" d="M851,-198.24C851,-205.43 851,-212 851,-212 851,-212 630,-212 630,-212 630,-212 630,-227.85 630,-227.85"/>
<polygon fill="black" stroke="black" points="626.5,-227.85 630,-237.85 633.5,-227.85 626.5,-227.85"/>
</g>
<!-- SeeModule -->
<g id="node8" class="node">
<title>SeeModule</title>
<polygon fill="#8dd3c7" stroke="black" points="1231.76,-198 1228.76,-202 1207.76,-202 1204.76,-198 1152.24,-198 1152.24,-162 1231.76,-162 1231.76,-198"/>
<text text-anchor="middle" x="1192" y="-175.8" font-family="Times,serif" font-size="14.00">SeeModule</text>
</g>
<!-- SeeModule&#45;&gt;AppModule -->
<g id="edge8" class="edge">
<title>SeeModule&#45;&gt;AppModule</title>
<path fill="none" stroke="black" d="M1192,-198.06C1192,-209.44 1192,-222 1192,-222 1192,-222 645.69,-222 645.69,-222 645.69,-222 645.69,-227.81 645.69,-227.81"/>
<polygon fill="black" stroke="black" points="642.19,-227.81 645.69,-237.81 649.19,-227.81 642.19,-227.81"/>
</g>
<!-- TasksModule -->
<g id="node9" class="node">
<title>TasksModule</title>
<polygon fill="#8dd3c7" stroke="black" points="1458.21,-198 1455.21,-202 1434.21,-202 1431.21,-198 1365.79,-198 1365.79,-162 1458.21,-162 1458.21,-198"/>
<text text-anchor="middle" x="1412" y="-175.8" font-family="Times,serif" font-size="14.00">TasksModule</text>
</g>
<!-- TasksModule&#45;&gt;AppModule -->
<g id="edge9" class="edge">
<title>TasksModule&#45;&gt;AppModule</title>
<path fill="none" stroke="black" d="M1412,-198.15C1412,-211.74 1412,-228 1412,-228 1412,-228 656.14,-228 656.14,-228 656.14,-228 656.14,-228.98 656.14,-228.98"/>
<polygon fill="black" stroke="black" points="652.64,-227.79 656.14,-237.79 659.64,-227.79 652.64,-227.79"/>
</g>
<!-- UsersModule -->
<g id="node10" class="node">
<title>UsersModule</title>
<polygon fill="#8dd3c7" stroke="black" points="1669.92,-198 1666.92,-202 1645.92,-202 1642.92,-198 1578.08,-198 1578.08,-162 1669.92,-162 1669.92,-198"/>
<text text-anchor="middle" x="1624" y="-175.8" font-family="Times,serif" font-size="14.00">UsersModule</text>
</g>
<!-- UsersModule&#45;&gt;AuthModule -->
<g id="edge18" class="edge">
<title>UsersModule&#45;&gt;AuthModule</title>
<path fill="none" stroke="black" d="M1639.24,-198.03C1639.24,-218.77 1639.24,-250 1639.24,-250 1639.24,-250 787.66,-250 787.66,-250"/>
<polygon fill="black" stroke="black" points="787.66,-246.5 777.66,-250 787.66,-253.5 787.66,-246.5"/>
</g>
<!-- UsersModule&#45;&gt;AppModule -->
<g id="edge10" class="edge">
<title>UsersModule&#45;&gt;AppModule</title>
<path fill="none" stroke="black" d="M1608.76,-198.01C1608.76,-214.05 1608.76,-235 1608.76,-235 1608.76,-235 666.6,-235 666.6,-235 666.6,-235 666.6,-235.29 666.6,-235.29"/>
<polygon fill="black" stroke="black" points="663.1,-227.92 666.6,-237.92 670.1,-227.92 663.1,-227.92"/>
</g>
<!-- UsersService  -->
<g id="node37" class="node">
<title>UsersService </title>
<polygon fill="#fb8072" stroke="black" points="2077.85,-274 1984.15,-274 1984.15,-238 2077.85,-238 2077.85,-274"/>
<text text-anchor="middle" x="2031" y="-251.8" font-family="Times,serif" font-size="14.00">UsersService </text>
</g>
<!-- UsersModule&#45;&gt;UsersService  -->
<g id="edge40" class="edge">
<title>UsersModule&#45;&gt;UsersService </title>
<path fill="none" stroke="black" stroke-dasharray="5,2" d="M1669.9,-174C1776.34,-174 2031,-174 2031,-174 2031,-174 2031,-227.8 2031,-227.8"/>
<polygon fill="black" stroke="black" points="2027.5,-227.8 2031,-237.8 2034.5,-227.8 2027.5,-227.8"/>
</g>
<!-- AppService -->
<g id="node12" class="node">
<title>AppService</title>
<ellipse fill="#fdb462" stroke="black" cx="1107" cy="-104" rx="56.74" ry="18"/>
<text text-anchor="middle" x="1107" y="-99.8" font-family="Times,serif" font-size="14.00">AppService</text>
</g>
<!-- AppService&#45;&gt;AppModule -->
<g id="edge11" class="edge">
<title>AppService&#45;&gt;AppModule</title>
<path fill="none" stroke="black" d="M1059.64,-113.98C1059.64,-121.31 1059.64,-130 1059.64,-130 1059.64,-130 609.09,-130 609.09,-130 609.09,-130 609.09,-227.95 609.09,-227.95"/>
<polygon fill="black" stroke="black" points="605.59,-227.95 609.09,-237.95 612.59,-227.95 605.59,-227.95"/>
</g>
<!-- CommonService -->
<g id="node13" class="node">
<title>CommonService</title>
<ellipse fill="#fdb462" stroke="black" cx="652" cy="-104" rx="75.88" ry="18"/>
<text text-anchor="middle" x="652" y="-99.8" font-family="Times,serif" font-size="14.00">CommonService</text>
</g>
<!-- CommonService&#45;&gt;AppModule -->
<g id="edge12" class="edge">
<title>CommonService&#45;&gt;AppModule</title>
<path fill="none" stroke="black" d="M593.4,-115.93C593.4,-115.93 593.4,-227.67 593.4,-227.67"/>
<polygon fill="black" stroke="black" points="589.9,-227.67 593.4,-237.67 596.9,-227.67 589.9,-227.67"/>
</g>
<!-- PostService -->
<g id="node14" class="node">
<title>PostService</title>
<ellipse fill="#fdb462" stroke="black" cx="803" cy="-104" rx="56.76" ry="18"/>
<text text-anchor="middle" x="803" y="-99.8" font-family="Times,serif" font-size="14.00">PostService</text>
</g>
<!-- PostService&#45;&gt;AppModule -->
<g id="edge13" class="edge">
<title>PostService&#45;&gt;AppModule</title>
<path fill="none" stroke="black" d="M766.3,-117.81C766.3,-122.23 766.3,-126 766.3,-126 766.3,-126 598.63,-126 598.63,-126 598.63,-126 598.63,-227.92 598.63,-227.92"/>
<polygon fill="black" stroke="black" points="595.13,-227.92 598.63,-237.92 602.13,-227.92 595.13,-227.92"/>
</g>
<!-- RequestService -->
<g id="node15" class="node">
<title>RequestService</title>
<ellipse fill="#fdb462" stroke="black" cx="1424" cy="-104" rx="71.2" ry="18"/>
<text text-anchor="middle" x="1424" y="-99.8" font-family="Times,serif" font-size="14.00">RequestService</text>
</g>
<!-- RequestService&#45;&gt;ScopeModule -->
<g id="edge36" class="edge">
<title>RequestService&#45;&gt;ScopeModule</title>
<path fill="none" stroke="black" d="M1361.56,-112.93C1361.56,-123.01 1361.56,-138 1361.56,-138 1361.56,-138 893.9,-138 893.9,-138 893.9,-138 893.9,-151.94 893.9,-151.94"/>
<polygon fill="black" stroke="black" points="890.4,-151.94 893.9,-161.94 897.4,-151.94 890.4,-151.94"/>
</g>
<!-- RequestService&#45;&gt;AppModule -->
<g id="edge14" class="edge">
<title>RequestService&#45;&gt;AppModule</title>
<path fill="none" stroke="black" d="M1357.23,-110.36C1357.23,-119.17 1357.23,-134 1357.23,-134 1357.23,-134 619.54,-134 619.54,-134 619.54,-134 619.54,-228 619.54,-228"/>
<polygon fill="black" stroke="black" points="616.04,-228 619.54,-238 623.04,-228 616.04,-228"/>
</g>
<!-- SingletonService -->
<g id="node16" class="node">
<title>SingletonService</title>
<ellipse fill="#fdb462" stroke="black" cx="955" cy="-104" rx="77.02" ry="18"/>
<text text-anchor="middle" x="955" y="-99.8" font-family="Times,serif" font-size="14.00">SingletonService</text>
</g>
<!-- SingletonService&#45;&gt;ScopeModule -->
<g id="edge37" class="edge">
<title>SingletonService&#45;&gt;ScopeModule</title>
<path fill="none" stroke="black" d="M885.95,-112.13C885.95,-112.13 885.95,-151.88 885.95,-151.88"/>
<polygon fill="black" stroke="black" points="882.45,-151.88 885.95,-161.88 889.45,-151.88 882.45,-151.88"/>
</g>
<!-- SingletonService&#45;&gt;AppModule -->
<g id="edge15" class="edge">
<title>SingletonService&#45;&gt;AppModule</title>
<path fill="none" stroke="black" d="M881.97,-109.81C881.97,-116.91 881.97,-128 881.97,-128 881.97,-128 603.86,-128 603.86,-128 603.86,-128 603.86,-227.93 603.86,-227.93"/>
<polygon fill="black" stroke="black" points="600.36,-227.93 603.86,-237.93 607.36,-227.93 600.36,-227.93"/>
</g>
<!-- TransientService -->
<g id="node17" class="node">
<title>TransientService</title>
<ellipse fill="#fdb462" stroke="black" cx="1258" cy="-104" rx="76.42" ry="18"/>
<text text-anchor="middle" x="1258" y="-99.8" font-family="Times,serif" font-size="14.00">TransientService</text>
</g>
<!-- TransientService&#45;&gt;ScopeModule -->
<g id="edge38" class="edge">
<title>TransientService&#45;&gt;ScopeModule</title>
<path fill="none" stroke="black" d="M1215.1,-119.25C1215.1,-127.49 1215.1,-136 1215.1,-136 1215.1,-136 889.92,-136 889.92,-136 889.92,-136 889.92,-151.85 889.92,-151.85"/>
<polygon fill="black" stroke="black" points="886.42,-151.85 889.92,-161.85 893.42,-151.85 886.42,-151.85"/>
</g>
<!-- TransientService&#45;&gt;AppModule -->
<g id="edge16" class="edge">
<title>TransientService&#45;&gt;AppModule</title>
<path fill="none" stroke="black" d="M1198.32,-115.39C1198.32,-123.14 1198.32,-132 1198.32,-132 1198.32,-132 614.31,-132 614.31,-132 614.31,-132 614.31,-227.97 614.31,-227.97"/>
<polygon fill="black" stroke="black" points="610.81,-227.97 614.31,-237.97 617.81,-227.97 610.81,-227.97"/>
</g>
<!-- AudioService -->
<g id="node18" class="node">
<title>AudioService</title>
<ellipse fill="#fdb462" stroke="black" cx="1774" cy="-104" rx="64.26" ry="18"/>
<text text-anchor="middle" x="1774" y="-99.8" font-family="Times,serif" font-size="14.00">AudioService</text>
</g>
<!-- AudioService&#45;&gt;AudioModule -->
<g id="edge17" class="edge">
<title>AudioService&#45;&gt;AudioModule</title>
<path fill="none" stroke="black" d="M1753.02,-121.16C1753.02,-130.43 1753.02,-140 1753.02,-140 1753.02,-140 963,-140 963,-140 963,-140 963,-151.87 963,-151.87"/>
<polygon fill="black" stroke="black" points="959.5,-151.87 963,-161.87 966.5,-151.87 959.5,-151.87"/>
</g>
<!-- AuthService -->
<g id="node20" class="node">
<title>AuthService</title>
<ellipse fill="#fdb462" stroke="black" cx="363" cy="-180" rx="59.11" ry="18"/>
<text text-anchor="middle" x="363" y="-175.8" font-family="Times,serif" font-size="14.00">AuthService</text>
</g>
<!-- AuthService&#45;&gt;AuthModule -->
<g id="edge20" class="edge">
<title>AuthService&#45;&gt;AuthModule</title>
<path fill="none" stroke="black" d="M363,-198.17C363,-200.45 363,-202 363,-202 363,-202 755.89,-202 755.89,-202 755.89,-202 755.89,-227.72 755.89,-227.72"/>
<polygon fill="black" stroke="black" points="752.39,-227.72 755.89,-237.72 759.39,-227.72 752.39,-227.72"/>
</g>
<!-- AuthService&#45;&gt;CircularModule -->
<g id="edge24" class="edge">
<title>AuthService&#45;&gt;CircularModule</title>
<path fill="none" stroke="black" d="M363,-161.97C363,-145.6 363,-124 363,-124 363,-124 1041.2,-124 1041.2,-124 1041.2,-124 1041.2,-151.97 1041.2,-151.97"/>
<polygon fill="black" stroke="black" points="1037.7,-151.97 1041.2,-161.97 1044.7,-151.97 1037.7,-151.97"/>
</g>
<!-- JwtStrategy -->
<g id="node21" class="node">
<title>JwtStrategy</title>
<ellipse fill="#fdb462" stroke="black" cx="229" cy="-180" rx="56.76" ry="18"/>
<text text-anchor="middle" x="229" y="-175.8" font-family="Times,serif" font-size="14.00">JwtStrategy</text>
</g>
<!-- JwtStrategy&#45;&gt;AuthModule -->
<g id="edge21" class="edge">
<title>JwtStrategy&#45;&gt;AuthModule</title>
<path fill="none" stroke="black" d="M229,-198.17C229,-202.05 229,-205 229,-205 229,-205 734,-205 734,-205 734,-205 734,-227.88 734,-227.88"/>
<polygon fill="black" stroke="black" points="730.5,-227.88 734,-237.88 737.5,-227.88 730.5,-227.88"/>
</g>
<!-- LocalStrategy -->
<g id="node22" class="node">
<title>LocalStrategy</title>
<ellipse fill="#fdb462" stroke="black" cx="89" cy="-180" rx="65.41" ry="18"/>
<text text-anchor="middle" x="89" y="-175.8" font-family="Times,serif" font-size="14.00">LocalStrategy</text>
</g>
<!-- LocalStrategy&#45;&gt;AuthModule -->
<g id="edge22" class="edge">
<title>LocalStrategy&#45;&gt;AuthModule</title>
<path fill="none" stroke="black" d="M89,-198.21C89,-203.55 89,-208 89,-208 89,-208 712.11,-208 712.11,-208 712.11,-208 712.11,-227.85 712.11,-227.85"/>
<polygon fill="black" stroke="black" points="708.61,-227.85 712.11,-237.85 715.61,-227.85 708.61,-227.85"/>
</g>
<!-- AuthServiceForWardRef -->
<g id="node24" class="node">
<title>AuthServiceForWardRef</title>
<ellipse fill="#fdb462" stroke="black" cx="3022" cy="-104" rx="108.2" ry="18"/>
<text text-anchor="middle" x="3022" y="-99.8" font-family="Times,serif" font-size="14.00">AuthServiceForWardRef</text>
</g>
<!-- AuthServiceForWardRef&#45;&gt;CircularModule -->
<g id="edge25" class="edge">
<title>AuthServiceForWardRef&#45;&gt;CircularModule</title>
<path fill="none" stroke="black" d="M3022,-122.05C3022,-136.37 3022,-154 3022,-154 3022,-154 1124.45,-154 1124.45,-154 1124.45,-154 1124.45,-154.79 1124.45,-154.79"/>
<polygon fill="black" stroke="black" points="1120.95,-151.94 1124.45,-161.94 1127.95,-151.94 1120.95,-151.94"/>
</g>
<!-- LazyLoaderService -->
<g id="node25" class="node">
<title>LazyLoaderService</title>
<ellipse fill="#fdb462" stroke="black" cx="2809" cy="-104" rx="86.78" ry="18"/>
<text text-anchor="middle" x="2809" y="-99.8" font-family="Times,serif" font-size="14.00">LazyLoaderService</text>
</g>
<!-- LazyLoaderService&#45;&gt;CircularModule -->
<g id="edge26" class="edge">
<title>LazyLoaderService&#45;&gt;CircularModule</title>
<path fill="none" stroke="black" d="M2809,-122.15C2809,-135.74 2809,-152 2809,-152 2809,-152 1115.19,-152 1115.19,-152 1115.19,-152 1115.19,-152.98 1115.19,-152.98"/>
<polygon fill="black" stroke="black" points="1111.69,-151.79 1115.19,-161.79 1118.69,-151.79 1111.69,-151.79"/>
</g>
<!-- ResolveService -->
<g id="node26" class="node">
<title>ResolveService</title>
<ellipse fill="#fdb462" stroke="black" cx="2633" cy="-104" rx="71.2" ry="18"/>
<text text-anchor="middle" x="2633" y="-99.8" font-family="Times,serif" font-size="14.00">ResolveService</text>
</g>
<!-- ResolveService&#45;&gt;CircularModule -->
<g id="edge27" class="edge">
<title>ResolveService&#45;&gt;CircularModule</title>
<path fill="none" stroke="black" d="M2633,-122.18C2633,-135.04 2633,-150 2633,-150 2633,-150 1105.93,-150 1105.93,-150 1105.93,-150 1105.93,-151.86 1105.93,-151.86"/>
<polygon fill="black" stroke="black" points="1102.43,-151.86 1105.93,-161.86 1109.43,-151.86 1102.43,-151.86"/>
</g>
<!-- RetrievingService -->
<g id="node27" class="node">
<title>RetrievingService</title>
<ellipse fill="#fdb462" stroke="black" cx="2463" cy="-104" rx="80.51" ry="18"/>
<text text-anchor="middle" x="2463" y="-99.8" font-family="Times,serif" font-size="14.00">RetrievingService</text>
</g>
<!-- RetrievingService&#45;&gt;CircularModule -->
<g id="edge28" class="edge">
<title>RetrievingService&#45;&gt;CircularModule</title>
<path fill="none" stroke="black" d="M2463,-122.15C2463,-134.27 2463,-148 2463,-148 2463,-148 1096.67,-148 1096.67,-148 1096.67,-148 1096.67,-151.76 1096.67,-151.76"/>
<polygon fill="black" stroke="black" points="1093.17,-151.76 1096.67,-161.76 1100.17,-151.76 1093.17,-151.76"/>
</g>
<!-- ShareService -->
<g id="node28" class="node">
<title>ShareService</title>
<ellipse fill="#fdb462" stroke="black" cx="2302" cy="-104" rx="61.95" ry="18"/>
<text text-anchor="middle" x="2302" y="-99.8" font-family="Times,serif" font-size="14.00">ShareService</text>
</g>
<!-- ShareService&#45;&gt;CircularModule -->
<g id="edge29" class="edge">
<title>ShareService&#45;&gt;CircularModule</title>
<path fill="none" stroke="black" d="M2302,-122.06C2302,-133.44 2302,-146 2302,-146 2302,-146 1087.42,-146 1087.42,-146 1087.42,-146 1087.42,-151.81 1087.42,-151.81"/>
<polygon fill="black" stroke="black" points="1083.92,-151.81 1087.42,-161.81 1090.92,-151.81 1083.92,-151.81"/>
</g>
<!-- UserService -->
<g id="node29" class="node">
<title>UserService</title>
<ellipse fill="#fdb462" stroke="black" cx="2164" cy="-104" rx="58.44" ry="18"/>
<text text-anchor="middle" x="2164" y="-99.8" font-family="Times,serif" font-size="14.00">UserService</text>
</g>
<!-- UserService&#45;&gt;CircularModule -->
<g id="edge30" class="edge">
<title>UserService&#45;&gt;CircularModule</title>
<path fill="none" stroke="black" d="M2164,-122.13C2164,-132.71 2164,-144 2164,-144 2164,-144 1078.16,-144 1078.16,-144 1078.16,-144 1078.16,-151.58 1078.16,-151.58"/>
<polygon fill="black" stroke="black" points="1074.66,-151.58 1078.16,-161.58 1081.66,-151.58 1074.66,-151.58"/>
</g>
<!-- UserServiceForwardRef -->
<g id="node30" class="node">
<title>UserServiceForwardRef</title>
<ellipse fill="#fdb462" stroke="black" cx="1983" cy="-104" rx="104.75" ry="18"/>
<text text-anchor="middle" x="1983" y="-99.8" font-family="Times,serif" font-size="14.00">UserServiceForwardRef</text>
</g>
<!-- UserServiceForwardRef&#45;&gt;CircularModule -->
<g id="edge31" class="edge">
<title>UserServiceForwardRef&#45;&gt;CircularModule</title>
<path fill="none" stroke="black" d="M1919.05,-118.58C1919.05,-129.3 1919.05,-142 1919.05,-142 1919.05,-142 1068.9,-142 1068.9,-142 1068.9,-142 1068.9,-151.89 1068.9,-151.89"/>
<polygon fill="black" stroke="black" points="1065.4,-151.89 1068.9,-161.89 1072.4,-151.89 1065.4,-151.89"/>
</g>
<!-- OrderCreatedListener -->
<g id="node31" class="node">
<title>OrderCreatedListener</title>
<ellipse fill="#fdb462" stroke="black" cx="3415" cy="-104" rx="95.44" ry="18"/>
<text text-anchor="middle" x="3415" y="-99.8" font-family="Times,serif" font-size="14.00">OrderCreatedListener</text>
</g>
<!-- OrderCreatedListener&#45;&gt;OrdersModule -->
<g id="edge32" class="edge">
<title>OrderCreatedListener&#45;&gt;OrdersModule</title>
<path fill="none" stroke="black" d="M3415,-122.28C3415,-137.95 3415,-158 3415,-158 3415,-158 1306.37,-158 1306.37,-158 1306.37,-158 1306.37,-158.38 1306.37,-158.38"/>
<polygon fill="black" stroke="black" points="1302.87,-151.83 1306.37,-161.83 1309.87,-151.83 1302.87,-151.83"/>
</g>
<!-- OrdersService -->
<g id="node32" class="node">
<title>OrdersService</title>
<ellipse fill="#fdb462" stroke="black" cx="3236" cy="-104" rx="66.03" ry="18"/>
<text text-anchor="middle" x="3236" y="-99.8" font-family="Times,serif" font-size="14.00">OrdersService</text>
</g>
<!-- OrdersService&#45;&gt;OrdersModule -->
<g id="edge33" class="edge">
<title>OrdersService&#45;&gt;OrdersModule</title>
<path fill="none" stroke="black" d="M3236,-122.19C3236,-137.18 3236,-156 3236,-156 3236,-156 1278.27,-156 1278.27,-156 1278.27,-156 1278.27,-156.58 1278.27,-156.58"/>
<polygon fill="black" stroke="black" points="1274.77,-151.81 1278.27,-161.81 1281.77,-151.81 1274.77,-151.81"/>
</g>
<!-- DatabaseModule -->
<g id="node33" class="node">
<title>DatabaseModule</title>
<polygon fill="#8dd3c7" stroke="black" points="3976.35,-122 3973.35,-126 3952.35,-126 3949.35,-122 3865.65,-122 3865.65,-86 3976.35,-86 3976.35,-122"/>
<text text-anchor="middle" x="3921" y="-99.8" font-family="Times,serif" font-size="14.00">DatabaseModule</text>
</g>
<!-- PhotoModule -->
<g id="node34" class="node">
<title>PhotoModule</title>
<polygon fill="#8dd3c7" stroke="black" points="3896.22,-198 3893.22,-202 3872.22,-202 3869.22,-198 3803.78,-198 3803.78,-162 3896.22,-162 3896.22,-198"/>
<text text-anchor="middle" x="3850" y="-175.8" font-family="Times,serif" font-size="14.00">PhotoModule</text>
</g>
<!-- DatabaseModule&#45;&gt;PhotoModule -->
<g id="edge34" class="edge">
<title>DatabaseModule&#45;&gt;PhotoModule</title>
<path fill="none" stroke="black" d="M3880.84,-122.01C3880.84,-122.01 3880.84,-151.85 3880.84,-151.85"/>
<polygon fill="black" stroke="black" points="3877.34,-151.85 3880.84,-161.85 3884.34,-151.85 3877.34,-151.85"/>
</g>
<!-- PhotoService -->
<g id="node35" class="node">
<title>PhotoService</title>
<ellipse fill="#fdb462" stroke="black" cx="3779" cy="-104" rx="62.56" ry="18"/>
<text text-anchor="middle" x="3779" y="-99.8" font-family="Times,serif" font-size="14.00">PhotoService</text>
</g>
<!-- PhotoService&#45;&gt;PhotoModule -->
<g id="edge35" class="edge">
<title>PhotoService&#45;&gt;PhotoModule</title>
<path fill="none" stroke="black" d="M3822.71,-116.89C3822.71,-116.89 3822.71,-151.91 3822.71,-151.91"/>
<polygon fill="black" stroke="black" points="3819.21,-151.91 3822.71,-161.91 3826.21,-151.91 3819.21,-151.91"/>
</g>
<!-- TasksService -->
<g id="node36" class="node">
<title>TasksService</title>
<ellipse fill="#fdb462" stroke="black" cx="3613" cy="-104" rx="62.54" ry="18"/>
<text text-anchor="middle" x="3613" y="-99.8" font-family="Times,serif" font-size="14.00">TasksService</text>
</g>
<!-- TasksService&#45;&gt;TasksModule -->
<g id="edge39" class="edge">
<title>TasksService&#45;&gt;TasksModule</title>
<path fill="none" stroke="black" d="M3613,-122.03C3613,-138.4 3613,-160 3613,-160 3613,-160 1412,-160 1412,-160 1412,-160 1412,-160.18 1412,-160.18"/>
<polygon fill="black" stroke="black" points="1408.5,-151.85 1412,-161.85 1415.5,-151.85 1408.5,-151.85"/>
</g>
<!-- UsersService -->
<g id="node38" class="node">
<title>UsersService</title>
<ellipse fill="#fdb462" stroke="black" cx="1898" cy="-256" rx="61.95" ry="18"/>
<text text-anchor="middle" x="1898" y="-251.8" font-family="Times,serif" font-size="14.00">UsersService</text>
</g>
<!-- UsersService&#45;&gt;UsersModule -->
<g id="edge41" class="edge">
<title>UsersService&#45;&gt;UsersModule</title>
<path fill="none" stroke="black" d="M1858.13,-242.17C1858.13,-221.77 1858.13,-186 1858.13,-186 1858.13,-186 1679.98,-186 1679.98,-186"/>
<polygon fill="black" stroke="black" points="1679.98,-182.5 1669.98,-186 1679.98,-189.5 1679.98,-182.5"/>
</g>
</g>
</svg>
